# xmcd
# 
# Track frame offsets:
#     150
#     22503
#     44380
#     65463
#     84705
#     105083
#     125300
#     145718
#     164218
#     183673
#     204678
#     221760
#     238255
#     256323
#     276898
#     299598
# 
# Disc length: 4233
# 
# Revision: 1
# Processed by: cddbd v1.5.2PL0 Copyright (c) Steve Scherf et al.
# Submitted via: fre:ac v1.0.31
# 
DISCID=f2108710
DTITLE=DA PUMP - THANX!!!!!!! Neo Best of DA PUMP
DYEAR=2018
DGENRE=VISION FACTORY
TTITLE0=Feelin' Good ～It's PARADISE～
TTITLE1=Love Is The Final Liberty
TTITLE2=Stay Together
TTITLE3=ごきげんだぜっ！ ～Nothing But Something～
TTITLE4=Rhapsody in Blue
TTITLE5=Around The World
TTITLE6=Joyful
TTITLE7=Crazy Beat Goes On!
TTITLE8=We can't stop the music
TTITLE9=I wonder...
TTITLE10=Com'on! Be My Girl!
TTITLE11=COARAZON
TTITLE12=Purple The Orion
TTITLE13=SUMMER RIDER
TTITLE14=New Position
TTITLE15=U.S.A.
EXTD=YEAR: 2018
EXTT0=
EXTT1=
EXTT2=
EXTT3=
EXTT4=
EXTT5=
EXTT6=
EXTT7=
EXTT8=
EXTT9=
EXTT10=
EXTT11=
EXTT12=
EXTT13=
EXTT14=
EXTT15=
PLAYORDER=
